<svg viewBox="0 0 20 22" fill="none" xmlns="http://www.w3.org/2000/svg" xmlns:xlink="http://www.w3.org/1999/xlink" x="0" y="0"><path id="Icon_30" d="M19,9h-18M14,1v4M6,1v4M7,15l2,2l4.5,-4.5M5.8,21h8.4c1.68,0 2.52,0 3.162,-0.33c0.564,-0.28 1.023,-0.74 1.311,-1.31c0.327,-0.64 0.327,-1.48 0.327,-3.16v-8.4c0,-1.68 0,-2.52 -0.327,-3.16c-0.288,-0.57 -0.747,-1.03 -1.311,-1.31c-0.642,-0.33 -1.482,-0.33 -3.162,-0.33h-8.4c-1.68,0 -2.52,0 -3.162,0.33c-0.564,0.28 -1.023,0.74 -1.311,1.31c-0.327,0.64 -0.327,1.48 -0.327,3.16v8.4c0,1.68 0,2.52 0.327,3.16c0.288,0.57 0.747,1.03 1.311,1.31c0.642,0.33 1.482,0.33 3.162,0.33z" stroke="#CECFD2" stroke-width="2" stroke-linecap="round" stroke-linejoin="round"/></svg>