<svg viewBox="0 0 18 22" fill="none" xmlns="http://www.w3.org/2000/svg" xmlns:xlink="http://www.w3.org/1999/xlink" x="0" y="0"><path id="Icon_9" d="M13,3c0.93,0 1.395,0 1.7765,0.1c1.0352,0.28 1.8439,1.09 2.1213,2.12c0.1022,0.39 0.1022,0.85 0.1022,1.78v9.2c0,1.68 0,2.52 -0.327,3.16c-0.2876,0.57 -0.7465,1.03 -1.311,1.31c-0.6418,0.33 -1.4818,0.33 -3.162,0.33h-6.4c-1.6802,0 -2.5202,0 -3.162,-0.33c-0.5645,-0.28 -1.0234,-0.74 -1.311,-1.31c-0.327,-0.64 -0.327,-1.48 -0.327,-3.16v-9.2c0,-0.93 0,-1.39 0.1022,-1.78c0.2774,-1.03 1.0861,-1.84 2.1213,-2.12c0.3815,-0.1 0.8465,-0.1 1.7765,-0.1M6.5,11l5,5M11.5,11l-5,5M6.6,5h4.8c0.5601,0 0.8401,0 1.054,-0.11c0.1882,-0.09 0.3411,-0.25 0.437,-0.44c0.109,-0.21 0.109,-0.49 0.109,-1.05v-0.8c0,-0.56 0,-0.84 -0.109,-1.05c-0.0959,-0.19 -0.2488,-0.35 -0.437,-0.44c-0.2139,-0.11 -0.4939,-0.11 -1.054,-0.11h-4.8c-0.5601,0 -0.8401,0 -1.054,0.11c-0.1882,0.09 -0.3411,0.25 -0.437,0.44c-0.109,0.21 -0.109,0.49 -0.109,1.05v0.8c0,0.56 0,0.84 0.109,1.05c0.0959,0.19 0.2488,0.35 0.437,0.44c0.2139,0.11 0.4939,0.11 1.054,0.11z" stroke="currentColor" stroke-width="2" stroke-linecap="round" stroke-linejoin="round"/></svg>