<svg viewBox="0 0 22 22" fill="none" xmlns="http://www.w3.org/2000/svg" xmlns:xlink="http://www.w3.org/1999/xlink" x="0" y="0"><path id="Icon_28" d="M11,5v16M11,5h-3.536c-0.521,0 -1.02,-0.21 -1.389,-0.59c-0.368,-0.37 -0.575,-0.88 -0.575,-1.41c0,-0.53 0.207,-1.04 0.575,-1.41c0.369,-0.38 0.868,-0.59 1.389,-0.59c2.75,0 3.536,4 3.536,4zM11,5h3.536c0.521,0 1.02,-0.21 1.389,-0.59c0.368,-0.37 0.575,-0.88 0.575,-1.41c0,-0.53 -0.207,-1.04 -0.575,-1.41c-0.369,-0.38 -0.868,-0.59 -1.389,-0.59c-2.75,0 -3.536,4 -3.536,4zM19,10v7.8c0,1.12 0,1.68 -0.218,2.11c-0.192,0.37 -0.498,0.68 -0.874,0.87c-0.428,0.22 -0.988,0.22 -2.108,0.22h-9.6c-1.12,0 -1.68,0 -2.108,-0.22c-0.376,-0.19 -0.682,-0.5 -0.874,-0.87c-0.218,-0.43 -0.218,-0.99 -0.218,-2.11v-7.8M1,6.6v1.8c0,0.56 0,0.84 0.109,1.05c0.096,0.19 0.249,0.35 0.437,0.44c0.214,0.11 0.494,0.11 1.054,0.11h16.8c0.56,0 0.84,0 1.054,-0.11c0.188,-0.09 0.341,-0.25 0.437,-0.44c0.109,-0.21 0.109,-0.49 0.109,-1.05v-1.8c0,-0.56 0,-0.84 -0.109,-1.05c-0.096,-0.19 -0.249,-0.35 -0.437,-0.44c-0.214,-0.11 -0.494,-0.11 -1.054,-0.11h-16.8c-0.56,0 -0.84,0 -1.054,0.11c-0.188,0.09 -0.341,0.25 -0.437,0.44c-0.109,0.21 -0.109,0.49 -0.109,1.05z" stroke="#CECFD2" stroke-width="2" stroke-linecap="round" stroke-linejoin="round"/></svg>