<svg viewBox="0 0 22 20" fill="none" xmlns="http://www.w3.org/2000/svg" xmlns:xlink="http://www.w3.org/1999/xlink" x="0" y="0"><path id="Icon_27" d="M1,15v-0.15c0,-0.32 0,-0.47 0.024,-0.63c0.022,-0.14 0.057,-0.27 0.107,-0.4c0.055,-0.15 0.134,-0.28 0.291,-0.56l3.578,-6.26M1,15c0,2.21 1.791,4 4,4c2.209,0 4,-1.79 4,-4M1,15v-0.2c0,-0.28 0,-0.42 0.054,-0.53c0.048,-0.09 0.125,-0.17 0.219,-0.22c0.107,-0.05 0.247,-0.05 0.527,-0.05h6.4c0.28,0 0.42,0 0.527,0.05c0.094,0.05 0.171,0.13 0.219,0.22c0.054,0.11 0.054,0.25 0.054,0.53v0.2M5,7l3.578,6.26c0.157,0.28 0.236,0.41 0.291,0.56c0.05,0.13 0.085,0.26 0.107,0.4c0.024,0.16 0.024,0.31 0.024,0.63v0.15M5,7l12,-2M13,13v-0.15c0,-0.32 0,-0.47 0.024,-0.63c0.022,-0.14 0.057,-0.27 0.107,-0.4c0.055,-0.15 0.134,-0.28 0.291,-0.56l3.578,-6.26M13,13c0,2.21 1.791,4 4,4c2.209,0 4,-1.79 4,-4M13,13v-0.2c0,-0.28 0,-0.42 0.054,-0.53c0.048,-0.09 0.125,-0.17 0.219,-0.22c0.107,-0.05 0.247,-0.05 0.527,-0.05h6.4c0.28,0 0.42,0 0.527,0.05c0.094,0.05 0.171,0.13 0.219,0.22c0.054,0.11 0.054,0.25 0.054,0.53v0.2M17,5l3.578,6.26c0.157,0.28 0.236,0.41 0.291,0.56c0.05,0.13 0.085,0.26 0.107,0.4c0.024,0.16 0.024,0.31 0.024,0.63v0.15M11,1v5" stroke="#CECFD2" stroke-width="2" stroke-linecap="round" stroke-linejoin="round"/></svg>