<svg viewBox="0 0 18.3333 25.3333" fill="none" xmlns="http://www.w3.org/2000/svg" xmlns:xlink="http://www.w3.org/1999/xlink" x="0" y="0"><path id="Icon_26" d="M6.2497,24.3365h5.834M6.8337,10.3365h4.666M9.1667,10.3365v7M12.6667,16.5465c2.759,-1.31 4.667,-4.12 4.667,-7.38c0,-4.51 -3.657,-8.17 -8.167,-8.17c-4.51,0 -8.167,3.66 -8.167,8.17c0,3.26 1.908,6.07 4.667,7.38v0.79c0,1.08 0,1.63 0.178,2.06c0.236,0.57 0.691,1.02 1.262,1.26c0.429,0.18 0.973,0.18 2.06,0.18c1.087,0 1.631,0 2.06,-0.18c0.571,-0.24 1.025,-0.69 1.262,-1.26c0.178,-0.43 0.178,-0.98 0.178,-2.06z" stroke="currentColor" stroke-width="2" stroke-linecap="round" stroke-linejoin="round"/></svg>