<svg viewBox="0 0 20 20" fill="none" xmlns="http://www.w3.org/2000/svg" x="0" y="0"><g id="Buttons/Button loading icon_2">
<path id="Background_2" opacity="0.3" d="M19,10c0,1.18 -0.233,2.35 -0.685,3.44c-0.452,1.1 -1.115,2.09 -1.951,2.92c-0.836,0.84 -1.828,1.5 -2.92,1.95c-1.092,0.46 -2.262,0.69 -3.444,0.69c-1.182,0 -2.352,-0.23 -3.444,-0.69c-1.092,-0.45 -2.084,-1.11 -2.92,-1.95c-0.836,-0.83 -1.499,-1.82 -1.951,-2.92c-0.452,-1.09 -0.685,-2.26 -0.685,-3.44c0,-1.18 0.233,-2.35 0.685,-3.44c0.452,-1.1 1.115,-2.09 1.951,-2.92c0.836,-0.84 1.828,-1.5 2.92,-1.95c1.092,-0.46 2.262,-0.69 3.444,-0.69c1.182,0 2.352,0.23 3.444,0.69c1.092,0.45 2.084,1.11 2.92,1.95c0.836,0.83 1.499,1.82 1.951,2.92c0.452,1.09 0.685,2.26 0.685,3.44z" stroke="#9E77ED" stroke-width="2" stroke-linecap="round" stroke-linejoin="round"/>
<path id="Line_2" d="M10,1c1.182,0 2.352,0.23 3.444,0.69c1.092,0.45 2.084,1.11 2.92,1.95c0.836,0.83 1.499,1.82 1.951,2.92c0.452,1.09 0.685,2.26 0.685,3.44" stroke="#9E77ED" stroke-width="2" stroke-linecap="round" stroke-linejoin="round"/>
</g></svg>