<svg viewBox="0 0 20 20" fill="none" xmlns="http://www.w3.org/2000/svg" x="0" y="0"><g id="Buttons/Button loading icon_5">
<path id="Background_5" opacity="0.3" d="M19,10c0,1.182 -0.233,2.352 -0.685,3.444c-0.452,1.092 -1.115,2.084 -1.951,2.92c-0.836,0.836 -1.828,1.499 -2.92,1.951c-1.092,0.452 -2.262,0.685 -3.444,0.685c-1.182,0 -2.352,-0.233 -3.444,-0.685c-1.092,-0.452 -2.084,-1.115 -2.92,-1.951c-0.836,-0.836 -1.499,-1.828 -1.951,-2.92c-0.452,-1.092 -0.685,-2.262 -0.685,-3.444c0,-1.182 0.233,-2.352 0.685,-3.444c0.452,-1.092 1.115,-2.084 1.951,-2.92c0.836,-0.836 1.828,-1.499 2.92,-1.951c1.092,-0.452 2.262,-0.685 3.444,-0.685c1.182,0 2.352,0.233 3.444,0.685c1.092,0.452 2.084,1.115 2.92,1.951c0.836,0.836 1.499,1.828 1.951,2.92c0.452,1.092 0.685,2.262 0.685,3.444z" stroke="#A4A7AE" stroke-width="2" stroke-linecap="round" stroke-linejoin="round"/>
<path id="Line_5" d="M10,1c1.182,0 2.352,0.233 3.444,0.685c1.092,0.452 2.084,1.115 2.92,1.951c0.836,0.836 1.499,1.828 1.951,2.92c0.452,1.092 0.685,2.262 0.685,3.444" stroke="#A4A7AE" stroke-width="2" stroke-linecap="round" stroke-linejoin="round"/>
</g></svg>