<svg viewBox="0 0 20 20.4597" fill="none" xmlns="http://www.w3.org/2000/svg" xmlns:xlink="http://www.w3.org/1999/xlink" x="0" y="0"><path id="Icon_14" d="M7,8.5l2,2l4.5,-4.5M5,16v2.34c0,0.53 0,0.79 0.1092,0.93c0.095,0.12 0.2391,0.19 0.3913,0.19c0.1751,0 0.3832,-0.17 0.7993,-0.5l2.3854,-1.91c0.4873,-0.39 0.731,-0.58 1.0023,-0.72c0.2407,-0.12 0.4969,-0.21 0.7617,-0.27c0.2985,-0.06 0.6105,-0.06 1.2345,-0.06h2.5163c1.6802,0 2.5202,0 3.162,-0.33c0.5645,-0.28 1.0234,-0.74 1.311,-1.31c0.327,-0.64 0.327,-1.48 0.327,-3.16v-5.4c0,-1.68 0,-2.52 -0.327,-3.16c-0.2876,-0.57 -0.7465,-1.03 -1.311,-1.31c-0.6418,-0.33 -1.4818,-0.33 -3.162,-0.33h-8.4c-1.6802,0 -2.5202,0 -3.162,0.33c-0.5645,0.28 -1.0234,0.74 -1.311,1.31c-0.327,0.64 -0.327,1.48 -0.327,3.16v6.2c0,0.93 0,1.39 0.1022,1.78c0.2774,1.03 1.0861,1.84 2.1213,2.12c0.3815,0.1 0.8465,0.1 1.7765,0.1z" stroke="currentColor" stroke-width="2" stroke-linecap="round" stroke-linejoin="round"/></svg>