<svg viewBox="0 0 21.3285 21.3284" fill="none" xmlns="http://www.w3.org/2000/svg" xmlns:xlink="http://www.w3.org/1999/xlink" x="0" y="0"><path id="Icon_18" d="M19.5,19.8286h-8M1,20.3286l5.5493,-2.13c0.3549,-0.14 0.5324,-0.21 0.6984,-0.3c0.1475,-0.08 0.2881,-0.17 0.4203,-0.27c0.1489,-0.12 0.2834,-0.25 0.5523,-0.52l11.2797,-11.28c1.1046,-1.1 1.1046,-2.9 0,-4c-1.1045,-1.1 -2.8954,-1.1 -4,0l-11.2797,11.28c-0.2689,0.27 -0.4034,0.4 -0.5189,0.55c-0.1026,0.13 -0.194,0.27 -0.2732,0.42c-0.0891,0.17 -0.1574,0.35 -0.2939,0.7zM1,20.3286l2.0581,-5.35c0.1473,-0.38 0.2209,-0.58 0.3472,-0.66c0.1104,-0.08 0.247,-0.11 0.379,-0.08c0.151,0.03 0.2961,0.17 0.5862,0.46l2.2591,2.26c0.2901,0.29 0.4351,0.43 0.464,0.59c0.0252,0.13 -0.0038,0.26 -0.0805,0.37c-0.0877,0.13 -0.2791,0.2 -0.662,0.35z" stroke="#E9D7FE" stroke-width="2" stroke-linecap="round" stroke-linejoin="round"/></svg>