<svg viewBox="0 0 22.5269 20.0041" fill="none" xmlns="http://www.w3.org/2000/svg" xmlns:xlink="http://www.w3.org/1999/xlink" x="0" y="0"><path id="Icon_4" d="M11.2635,7.5042v4M11.2635,15.5042h0.01M9.8788,2.3942l-8.2249,14.21c-0.4562,0.79 -0.6843,1.18 -0.6506,1.5c0.0294,0.29 0.1772,0.54 0.4065,0.71c0.263,0.19 0.7182,0.19 1.6288,0.19h16.4497c0.9106,0 1.3658,0 1.6288,-0.19c0.2293,-0.17 0.3771,-0.42 0.4065,-0.71c0.0337,-0.32 -0.1944,-0.71 -0.6506,-1.5l-8.2249,-14.21c-0.4545,-0.78 -0.6818,-1.18 -0.9783,-1.31c-0.2587,-0.11 -0.554,-0.11 -0.8126,0c-0.2966,0.13 -0.5239,0.53 -0.9784,1.31z" stroke="white" stroke-width="2" stroke-linecap="round" stroke-linejoin="round"/></svg>